<mxfile host="Electron" agent="Mozilla/5.0 (Windows NT 10.0; Win64; x64) AppleWebKit/537.36 (KHTML, like Gecko) draw.io/24.7.17 Chrome/128.0.6613.36 Electron/32.0.1 Safari/537.36" version="24.7.17">
  <diagram name="Page-1" id="81gT-N9j9MGfliOjsJ_U">
    <mxGraphModel dx="864" dy="556" grid="0" gridSize="10" guides="1" tooltips="1" connect="1" arrows="1" fold="1" page="1" pageScale="1" pageWidth="850" pageHeight="1100" math="0" shadow="0">
      <root>
        <mxCell id="0" />
        <mxCell id="1" parent="0" />
        <mxCell id="g1LEr2QbNZ6NjWvX7gjU-1" value="Singleton" style="shape=step;perimeter=stepPerimeter;whiteSpace=wrap;html=1;fixedSize=1;fillColor=#d80073;fontColor=#ffffff;strokeColor=#A50040;" vertex="1" parent="1">
          <mxGeometry x="20" y="220" width="130" height="60" as="geometry" />
        </mxCell>
        <mxCell id="g1LEr2QbNZ6NjWvX7gjU-2" value="Observer Suject" style="shape=step;perimeter=stepPerimeter;whiteSpace=wrap;html=1;fixedSize=1;fillColor=#a20025;fontColor=#ffffff;strokeColor=#6F0000;" vertex="1" parent="1">
          <mxGeometry x="155" y="220" width="130" height="60" as="geometry" />
        </mxCell>
        <mxCell id="g1LEr2QbNZ6NjWvX7gjU-3" value="Observer" style="shape=step;perimeter=stepPerimeter;whiteSpace=wrap;html=1;fixedSize=1;fillColor=#e51400;fontColor=#ffffff;strokeColor=#B20000;" vertex="1" parent="1">
          <mxGeometry x="290" y="220" width="130" height="60" as="geometry" />
        </mxCell>
        <mxCell id="g1LEr2QbNZ6NjWvX7gjU-4" value="&lt;font color=&quot;#ffffff&quot;&gt;Factory&lt;/font&gt;" style="shape=step;perimeter=stepPerimeter;whiteSpace=wrap;html=1;fixedSize=1;fillColor=#fa6800;fontColor=#000000;strokeColor=#C73500;" vertex="1" parent="1">
          <mxGeometry x="420" y="220" width="130" height="60" as="geometry" />
        </mxCell>
        <mxCell id="g1LEr2QbNZ6NjWvX7gjU-11" value="&lt;font color=&quot;#ffffff&quot;&gt;Strategy&lt;/font&gt;" style="shape=step;perimeter=stepPerimeter;whiteSpace=wrap;html=1;fixedSize=1;fillColor=#f0a30a;fontColor=#000000;strokeColor=#BD7000;" vertex="1" parent="1">
          <mxGeometry x="550" y="220" width="130" height="60" as="geometry" />
        </mxCell>
        <mxCell id="g1LEr2QbNZ6NjWvX7gjU-12" value="&amp;nbsp;&lt;font color=&quot;#ffffff&quot;&gt;Command/logging&lt;/font&gt;" style="shape=step;perimeter=stepPerimeter;whiteSpace=wrap;html=1;fixedSize=1;fillColor=#e3c800;fontColor=#000000;strokeColor=#B09500;" vertex="1" parent="1">
          <mxGeometry x="680" y="220" width="130" height="60" as="geometry" />
        </mxCell>
      </root>
    </mxGraphModel>
  </diagram>
</mxfile>
